<svg id="visual" viewBox="0 0 960 540" width="960" height="540" xmlns="http://www.w3.org/2000/svg" xmlns:xlink="http://www.w3.org/1999/xlink" version="1.1"><rect x="0" y="0" width="960" height="540" fill="#001220"></rect><defs><linearGradient id="grad1_0" x1="43.8%" y1="0%" x2="100%" y2="100%"><stop offset="14.444444444444446%" stop-color="#001220" stop-opacity="1"></stop><stop offset="85.55555555555554%" stop-color="#001220" stop-opacity="1"></stop></linearGradient></defs><defs><linearGradient id="grad2_0" x1="0%" y1="0%" x2="56.3%" y2="100%"><stop offset="14.444444444444446%" stop-color="#001220" stop-opacity="1"></stop><stop offset="85.55555555555554%" stop-color="#001220" stop-opacity="1"></stop></linearGradient></defs><g transform="translate(960, 0)"><path d="M0 486C-58.6 471.3 -117.2 456.5 -181 437C-244.8 417.5 -313.8 393.1 -343.7 343.7C-373.5 294.2 -364.4 219.5 -381.6 158C-398.8 96.6 -442.4 48.3 -486 0L0 0Z" fill="#9197d3"></path></g><g transform="translate(0, 540)"><path d="M0 -486C54.5 -462.6 109 -439.2 174.5 -421.3C240 -403.4 316.5 -391 343.7 -343.7C370.8 -296.3 348.5 -213.9 364 -150.8C379.5 -87.7 432.8 -43.8 486 0L0 0Z" fill="#9197d3"></path></g></svg>